<?xml version="1.0" encoding="UTF-8" standalone="no"?>
<svg width="512px" height="512px" viewBox="0 0 512 512" version="1.1" xmlns="http://www.w3.org/2000/svg" xmlns:xlink="http://www.w3.org/1999/xlink">
    <!-- Generator: Sketch 41.2 (35397) - http://www.bohemiancoding.com/sketch -->
    <title>logo-square</title>
    <desc>Created with Sketch.</desc>
    <defs></defs>
    <g id="Page-1" stroke="none" stroke-width="1" fill="none" fill-rule="evenodd">
        <g id="logo-square">
            <g id="leeds.dart" transform="translate(32.000000, 401.000000)">
                <path d="M13.805,67 L0.305,67 L0.305,0.22 L13.805,0.22 L13.805,67 Z M68.525,59.98 C63.0649727,65.1400258 56.6600368,67.72 49.31,67.72 C41.9599633,67.72 35.885024,65.4550226 31.085,60.925 C26.284976,56.3949773 23.885,50.3200381 23.885,42.7 C23.885,35.0799619 26.3299756,29.0200225 31.22,24.52 C36.1100245,20.0199775 41.8849667,17.77 48.545,17.77 C55.2050333,17.77 60.8599768,19.7799799 65.51,23.8 C70.1600233,27.8200201 72.485,33.3399649 72.485,40.36 L72.485,47.56 L37.205,47.56 C37.6250021,50.2000132 39.0049883,52.3599916 41.345,54.04 C43.6850117,55.7200084 46.3249853,56.56 49.265,56.56 C54.0050237,56.56 57.9049847,54.9700159 60.965,51.79 L68.525,59.98 Z M55.565,31.27 C53.7049907,29.7099922 51.4400134,28.93 48.77,28.93 C46.0999867,28.93 43.6550111,29.7399919 41.435,31.36 C39.2149889,32.9800081 37.9250018,35.1699862 37.565,37.93 L58.805,37.93 C58.5049985,35.0499856 57.4250093,32.8300078 55.565,31.27 Z M124.145,59.98 C118.684973,65.1400258 112.280037,67.72 104.93,67.72 C97.5799633,67.72 91.505024,65.4550226 86.705,60.925 C81.904976,56.3949773 79.505,50.3200381 79.505,42.7 C79.505,35.0799619 81.9499756,29.0200225 86.84,24.52 C91.7300245,20.0199775 97.5049667,17.77 104.165,17.77 C110.825033,17.77 116.479977,19.7799799 121.13,23.8 C125.780023,27.8200201 128.105,33.3399649 128.105,40.36 L128.105,47.56 L92.825,47.56 C93.2450021,50.2000132 94.6249883,52.3599916 96.965,54.04 C99.3050117,55.7200084 101.944985,56.56 104.885,56.56 C109.625024,56.56 113.524985,54.9700159 116.585,51.79 L124.145,59.98 Z M111.185,31.27 C109.324991,29.7099922 107.060013,28.93 104.39,28.93 C101.719987,28.93 99.2750111,29.7399919 97.055,31.36 C94.8349889,32.9800081 93.5450018,35.1699862 93.185,37.93 L114.425,37.93 C114.124999,35.0499856 113.045009,32.8300078 111.185,31.27 Z M141.875,60.43 C137.374978,55.5699757 135.125,49.540036 135.125,42.34 C135.125,35.139964 137.314978,29.245023 141.695,24.655 C146.075022,20.0649771 151.204971,17.77 157.085,17.77 C162.965029,17.77 167.764981,19.8399793 171.485,23.98 L171.485,0.22 L184.985,0.22 L184.985,67 L171.485,67 L171.485,60.61 C167.704981,65.3500237 162.950029,67.72 157.22,67.72 C151.489971,67.72 146.375023,65.2900243 141.875,60.43 Z M152.225,52.465 C154.565012,54.9550125 157.294984,56.2 160.415,56.2 C163.535016,56.2 166.189989,54.9550125 168.38,52.465 C170.570011,49.9749876 171.665,46.7650196 171.665,42.835 C171.665,38.9049804 170.570011,35.635013 168.38,33.025 C166.189989,30.414987 163.505016,29.11 160.325,29.11 C157.144984,29.11 154.415011,30.4299868 152.135,33.07 C149.854989,35.7100132 148.715,38.9799805 148.715,42.88 C148.715,46.7800195 149.884988,49.9749876 152.225,52.465 Z M228.95,63.4 C225.439982,66.2800144 220.985027,67.72 215.585,67.72 C211.984982,67.72 208.23502,67.0750064 204.335,65.785 C200.434981,64.4949936 196.925016,62.5900126 193.805,60.07 L199.745,51.61 C204.785025,55.5100195 210.154972,57.46 215.855,57.46 C217.595009,57.46 218.974995,57.1150035 219.995,56.425 C221.015005,55.7349966 221.525,54.8200057 221.525,53.68 C221.525,52.5399943 220.820007,51.4900048 219.41,50.53 C217.999993,49.5699952 215.960013,48.6700042 213.29,47.83 C210.619987,46.9899958 208.580007,46.270003 207.17,45.67 C205.759993,45.069997 204.155009,44.2000057 202.355,43.06 C198.694982,40.7799886 196.865,37.4050224 196.865,32.935 C196.865,28.4649776 198.664982,24.8200141 202.265,22 C205.865018,19.1799859 210.514972,17.77 216.215,17.77 C221.915029,17.77 227.614972,19.6899808 233.315,23.53 L228.275,32.53 C224.074979,29.6499856 219.890021,28.21 215.72,28.21 C211.549979,28.21 209.465,29.3499886 209.465,31.63 C209.465,32.8900063 210.124993,33.8799964 211.445,34.6 C212.765007,35.3200036 214.954985,36.1599952 218.015,37.12 C221.075015,38.0800048 223.249994,38.8149975 224.54,39.325 C225.830006,39.8350026 227.374991,40.6299946 229.175,41.71 C232.535017,43.7500102 234.215,47.1549761 234.215,51.925 C234.215,56.6950238 232.460018,60.5199856 228.95,63.4 Z" id="leeds" fill="#00A5E9"></path>
                <path d="M243.215,59.8 C243.215,57.5799889 243.979992,55.7050076 245.51,54.175 C247.040008,52.6449923 248.914989,51.88 251.135,51.88 C253.355011,51.88 255.229992,52.6449923 256.76,54.175 C258.290008,55.7050076 259.055,57.5799889 259.055,59.8 C259.055,62.0200111 258.290008,63.8949923 256.76,65.425 C255.229992,66.9550076 253.355011,67.72 251.135,67.72 C248.914989,67.72 247.040008,66.9550076 245.51,65.425 C243.979992,63.8949923 243.215,62.0200111 243.215,59.8 Z M274.535,60.43 C270.034978,55.5699757 267.785,49.540036 267.785,42.34 C267.785,35.139964 269.974978,29.245023 274.355,24.655 C278.735022,20.0649771 283.864971,17.77 289.745,17.77 C295.625029,17.77 300.424981,19.8399793 304.145,23.98 L304.145,0.22 L317.645,0.22 L317.645,67 L304.145,67 L304.145,60.61 C300.364981,65.3500237 295.610029,67.72 289.88,67.72 C284.149971,67.72 279.035023,65.2900243 274.535,60.43 Z M284.885,52.465 C287.225012,54.9550125 289.954984,56.2 293.075,56.2 C296.195016,56.2 298.849989,54.9550125 301.04,52.465 C303.230011,49.9749876 304.325,46.7650196 304.325,42.835 C304.325,38.9049804 303.230011,35.635013 301.04,33.025 C298.849989,30.414987 296.165016,29.11 292.985,29.11 C289.804984,29.11 287.075011,30.4299868 284.795,33.07 C282.514989,35.7100132 281.375,38.9799805 281.375,42.88 C281.375,46.7800195 282.544988,49.9749876 284.885,52.465 Z M371.555,67 L358.865,67 L358.865,61.15 C355.384983,65.5300219 351.080026,67.72 345.95,67.72 C340.819974,67.72 336.515017,66.2350148 333.035,63.265 C329.554983,60.2949852 327.815,56.3350248 327.815,51.385 C327.815,46.4349752 329.614982,42.7300123 333.215,40.27 C336.815018,37.8099877 341.734969,36.58 347.975,36.58 L358.055,36.58 L358.055,36.31 C358.055,31.1499742 355.325027,28.57 349.865,28.57 C347.524988,28.57 345.050013,29.0349954 342.44,29.965 C339.829987,30.8950046 337.625009,32.0499931 335.825,33.43 L329.795,24.7 C336.155032,20.0799769 343.414959,17.77 351.575,17.77 C357.455029,17.77 362.254981,19.2399853 365.975,22.18 C369.695019,25.1200147 371.555,29.7699682 371.555,36.13 L371.555,67 Z M357.965,48.55 L357.965,46.21 L349.505,46.21 C344.104973,46.21 341.405,47.8899832 341.405,51.25 C341.405,52.9900087 342.049994,54.3249953 343.34,55.255 C344.630006,56.1850046 346.474988,56.65 348.875,56.65 C351.275012,56.65 353.389991,55.9150073 355.22,54.445 C357.050009,52.9749926 357.965,51.0100123 357.965,48.55 Z M409.355,30.46 C405.33498,30.46 402.33501,31.8849857 400.355,34.735 C398.37499,37.5850142 397.385,41.3499766 397.385,46.03 L397.385,67 L383.885,67 L383.885,18.58 L397.385,18.58 L397.385,24.97 C399.125009,22.9899901 401.299987,21.3100069 403.91,19.93 C406.520013,18.5499931 409.174986,17.8300003 411.875,17.77 L411.965,30.46 L409.355,30.46 Z M436.985,28.3 L436.985,49.99 C436.985,51.8500093 437.464995,53.3049947 438.425,54.355 C439.385005,55.4050052 440.524993,55.93 441.845,55.93 C444.365013,55.93 446.494991,54.7900114 448.235,52.51 L453.275,61.96 C449.074979,65.8000192 444.650023,67.72 440,67.72 C435.349977,67.72 431.420016,66.1900153 428.21,63.13 C424.999984,60.0699847 423.395,55.9000264 423.395,50.62 L423.395,28.3 L417.725,28.3 L417.725,18.58 L423.395,18.58 L423.395,4.09 L436.985,4.09 L436.985,18.58 L448.685,18.58 L448.685,28.3 L436.985,28.3 Z" id=".dart" fill="#4EDECB"></path>
            </g>
            <g id="dart-bird" transform="translate(40.000000, 28.000000)">
                <g id="Layer_2">
                    <path d="M370.68002,75.6827227 L306.013734,40.6276972 C304.971663,40.0641931 304.014622,40.61139 303.783051,40.7617785 L252.661876,75.6809108 C252.404977,75.8566661 252.243963,76.141136 252.225871,76.4509727 C252.207779,76.7608093 252.332611,77.0633983 252.565991,77.2681441 L278.923509,100.397177 C279.109852,100.560249 279.346851,100.647221 279.585659,100.647221 C279.724963,100.647221 279.867886,100.61823 279.999954,100.556625 L313.39326,85.3999969 L370.372464,77.5580498 C370.795806,77.4855733 371.125071,77.1539938 371.195628,76.7300068 C371.264376,76.3078318 371.056323,75.8874686 370.68002,75.6827227 Z" id="Shape" fill="#00A5E9"></path>
                    <path d="M275.19304,128.175572 L330.544009,134.209232 C330.544009,134.209232 348.116291,105.548438 370.958629,88.20121 L368.811167,75.2913502 L313.39326,85.3999969 L279.999954,100.556625 L275.19304,128.175572 Z" id="Shape" fill="#00CCB9"></path>
                    <polygon id="Shape" fill="#018BD1" points="199.006082 99.0128778 252.80299 75.5848796 279.999954 100.558437 275.19304 128.175572 221.586093 89.1796414"></polygon>
                    <path d="M221.560765,88.8625572 L7.19448584,1.70424339 C2.71864675,-0.114914398 1.91719294,0.345310779 1.91719294,0.345310779 C1.59335495,1.04652001 3.21073577,3.34764589 3.62684045,3.92383332 C38.7840681,51.5263367 120.470845,135.894309 121.306673,136.754966 C121.500252,136.954276 121.76077,137.059367 122.026715,137.059367 C122.169638,137.059367 122.31437,137.028565 122.450056,136.965148 L221.605994,90.7052698 C221.967824,90.5367621 222.195777,90.1689444 222.184922,89.7685122 C222.177685,89.3680801 221.931641,89.0129457 221.560765,88.8625572 Z" id="Shape" fill="#00A5E9"></path>
                    <polygon id="Shape" fill="#00A5E9" points="189.321697 203.449567 204.529419 208.626194 275.19304 128.175572 221.937068 89.1307199"></polygon>
                    <path d="M319.148168,184.578523 C319.895348,183.768599 320.59368,183.311997 321.013403,180.845988 L321.015212,180.845988 C323.097545,167.92888 330.5422,134.20742 330.5422,134.20742 L275.191231,128.17376 L204.52761,208.62257 L232.893285,248.345076 L319.148168,184.578523 Z" id="Shape" fill="#4EDECB"></path>
                    <path d="M189.321697,203.449567 C189.321697,203.449567 221.097622,292.34369 229.882859,307.679698 L232.895095,248.3487 L204.529419,208.626194 L189.321697,203.449567 Z" id="Shape" fill="#018BD1"></path>
                    <path d="M231.393499,360.891875 L231.326561,359.090836 L231.326561,359.090836 L231.326561,359.090836 L229.360014,306.730257 L189.321697,203.451379 C189.321697,203.451379 189.292751,203.685115 189.236667,204.134469 C188.324855,211.633965 177.656293,281.787502 187.031313,325.423734 C187.223083,326.034348 187.758591,327.213901 188.621556,325.037797 C191.304527,316.773675 198.698526,294.583211 201.685434,291.591748 C201.685434,291.591748 203.091144,322.312684 206.034633,335.391052 C206.116044,335.708136 206.778194,338.13066 208.688657,340.406419 C213.083084,345.659146 224.055584,355.711624 229.926278,361.511548 C230.353238,361.886614 231.245149,362.455554 231.393499,360.891875 Z" id="Shape" fill="#00CCB9"></path>
                    <ellipse id="Oval" fill="#045B7F" transform="translate(313.610532, 84.597202) rotate(5.341743) translate(-313.610532, -84.597202) " cx="313.610532" cy="84.5972016" rx="12.8346683" ry="13.2420094"></ellipse>
                    <path d="M324.183035,82.4212166 C324.183035,82.4212166 374.721663,73.3707254 452.372225,65.9962511 C452.372225,65.9962511 383.881393,82.0316559 368.150827,90.4117403 L321.840185,86.4436571 L324.183035,82.4212166 Z" id="Shape" fill="#045B7F"></path>
                    <polygon id="Shape" fill="#045B7F" points="303.260206 86.284209 277.823546 99.0219373 279.943871 100.875521 306.109619 88.7900807"></polygon>
                    <path d="M307.055804,286.464042 C306.844134,286.371635 306.641509,286.281039 306.431647,286.190444 C306.422602,286.188632 306.400892,286.185008 306.400892,286.185008 L306.408128,286.179572 C254.633851,263.617667 239.690265,243.047051 239.690265,243.047051 L232.278174,247.486231 L229.464945,306.6759 C229.464945,306.6759 240.377742,345.369241 245.036306,357.3206 C245.07068,357.413008 245.725592,359.098084 247.232615,358.480223 C247.458759,358.342517 247.708421,358.192129 247.983412,358.023621 C247.987031,358.021809 247.98884,358.021809 247.990649,358.018186 L247.990649,358.018186 C249.264291,357.242688 251.046305,356.14467 253.106927,354.845531 C253.201003,354.77849 265.438099,345.954488 278.216131,333.3599 C279.00854,332.330735 278.626809,331.46283 278.512832,331.252649 C273.485202,322.582659 256.974892,294.200898 251.889369,286.561885 C251.889369,286.561885 272.113866,308.005842 289.329745,319.438995 C289.655392,319.627433 290.344678,319.893784 290.956171,319.410004 C298.317606,310.229055 305.537927,297.357246 307.562367,287.703389 C307.602168,287.049289 307.345269,286.674224 307.055804,286.464042 Z" id="Shape" fill="#00CCB9"></path>
                    <path d="M197.354327,100.496832 C197.354327,100.496832 132.664522,132.730714 111.955172,138.253416 L158.482913,152.018497 L197.354327,100.496832 Z" id="Shape" fill="#018BD1"></path>
                    <path d="M189.321697,202.739298 L122.383118,135.696811 C122.247431,135.562729 122.055661,135.519243 121.869319,135.575413 C121.838563,135.586284 121.617847,135.646077 121.306673,135.733049 L120.888759,135.301814 L119.425156,135.82908 L113.098556,137.947203 C93.4330865,143.225297 44.1518185,156.334467 1.03794565,167.231295 C0.963770468,167.249414 0.753908974,167.340009 0.753908974,167.340009 C0.753908974,167.340009 -1.05524183,167.992297 1.28399016,168.664516 C10.9448555,170.889541 79.9151116,186.479216 188.88931,203.590896 C188.916448,203.59452 188.941776,203.596331 188.967104,203.596331 C189.153446,203.596331 189.327125,203.493053 189.413964,203.320921 C189.511658,203.128859 189.473666,202.89331 189.321697,202.739298 Z" id="Shape" fill="#00A5E9"></path>
                    <polygon id="Shape" fill="#018BD1" points="221.938877 89.1307199 131.181018 131.096371 119.853925 135.675068 166.899082 181.449354 189.321697 203.449567"></polygon>
                </g>
            </g>
        </g>
    </g>
</svg>