<?xml version="1.0" encoding="UTF-8" standalone="no"?>
<svg width="512px" height="512px" viewBox="0 0 512 512" version="1.1" xmlns="http://www.w3.org/2000/svg" xmlns:xlink="http://www.w3.org/1999/xlink">
    <!-- Generator: Sketch 41.2 (35397) - http://www.bohemiancoding.com/sketch -->
    <title>logo-square</title>
    <desc>Created with Sketch.</desc>
    <defs></defs>
    <g id="Page-1" stroke="none" stroke-width="1" fill="none" fill-rule="evenodd">
        <g id="logo-square">
            <text id="leeds.dart" font-family="Montserrat-Bold, Montserrat" font-size="90" font-weight="bold">
                <tspan x="25.915" y="468" fill="#00A5E9">leeds</tspan>
                <tspan x="270.175" y="468" fill="#4EDECB">.dart</tspan>
            </text>
            <g id="dart-bird" transform="translate(40.000000, 28.000000)">
                <g id="Layer_2">
                    <path d="M370.68002,75.6827227 L306.013734,40.6276972 C304.971663,40.0641931 304.014622,40.61139 303.783051,40.7617785 L252.661876,75.6809108 C252.404977,75.8566661 252.243963,76.141136 252.225871,76.4509727 C252.207779,76.7608093 252.332611,77.0633983 252.565991,77.2681441 L278.923509,100.397177 C279.109852,100.560249 279.346851,100.647221 279.585659,100.647221 C279.724963,100.647221 279.867886,100.61823 279.999954,100.556625 L313.39326,85.3999969 L370.372464,77.5580498 C370.795806,77.4855733 371.125071,77.1539938 371.195628,76.7300068 C371.264376,76.3078318 371.056323,75.8874686 370.68002,75.6827227 Z" id="Shape" fill="#00A5E9"></path>
                    <path d="M275.19304,128.175572 L330.544009,134.209232 C330.544009,134.209232 348.116291,105.548438 370.958629,88.20121 L368.811167,75.2913502 L313.39326,85.3999969 L279.999954,100.556625 L275.19304,128.175572 Z" id="Shape" fill="#00CCB9"></path>
                    <polygon id="Shape" fill="#018BD1" points="199.006082 99.0128778 252.80299 75.5848796 279.999954 100.558437 275.19304 128.175572 221.586093 89.1796414"></polygon>
                    <path d="M221.560765,88.8625572 L7.19448584,1.70424339 C2.71864675,-0.114914398 1.91719294,0.345310779 1.91719294,0.345310779 C1.59335495,1.04652001 3.21073577,3.34764589 3.62684045,3.92383332 C38.7840681,51.5263367 120.470845,135.894309 121.306673,136.754966 C121.500252,136.954276 121.76077,137.059367 122.026715,137.059367 C122.169638,137.059367 122.31437,137.028565 122.450056,136.965148 L221.605994,90.7052698 C221.967824,90.5367621 222.195777,90.1689444 222.184922,89.7685122 C222.177685,89.3680801 221.931641,89.0129457 221.560765,88.8625572 Z" id="Shape" fill="#00A5E9"></path>
                    <polygon id="Shape" fill="#00A5E9" points="189.321697 203.449567 204.529419 208.626194 275.19304 128.175572 221.937068 89.1307199"></polygon>
                    <path d="M319.148168,184.578523 C319.895348,183.768599 320.59368,183.311997 321.013403,180.845988 L321.015212,180.845988 C323.097545,167.92888 330.5422,134.20742 330.5422,134.20742 L275.191231,128.17376 L204.52761,208.62257 L232.893285,248.345076 L319.148168,184.578523 Z" id="Shape" fill="#4EDECB"></path>
                    <path d="M189.321697,203.449567 C189.321697,203.449567 221.097622,292.34369 229.882859,307.679698 L232.895095,248.3487 L204.529419,208.626194 L189.321697,203.449567 Z" id="Shape" fill="#018BD1"></path>
                    <path d="M231.393499,360.891875 L231.326561,359.090836 L231.326561,359.090836 L231.326561,359.090836 L229.360014,306.730257 L189.321697,203.451379 C189.321697,203.451379 189.292751,203.685115 189.236667,204.134469 C188.324855,211.633965 177.656293,281.787502 187.031313,325.423734 C187.223083,326.034348 187.758591,327.213901 188.621556,325.037797 C191.304527,316.773675 198.698526,294.583211 201.685434,291.591748 C201.685434,291.591748 203.091144,322.312684 206.034633,335.391052 C206.116044,335.708136 206.778194,338.13066 208.688657,340.406419 C213.083084,345.659146 224.055584,355.711624 229.926278,361.511548 C230.353238,361.886614 231.245149,362.455554 231.393499,360.891875 Z" id="Shape" fill="#00CCB9"></path>
                    <ellipse id="Oval" fill="#045B7F" transform="translate(313.610532, 84.597202) rotate(5.341743) translate(-313.610532, -84.597202) " cx="313.610532" cy="84.5972016" rx="12.8346683" ry="13.2420094"></ellipse>
                    <path d="M324.183035,82.4212166 C324.183035,82.4212166 374.721663,73.3707254 452.372225,65.9962511 C452.372225,65.9962511 383.881393,82.0316559 368.150827,90.4117403 L321.840185,86.4436571 L324.183035,82.4212166 Z" id="Shape" fill="#045B7F"></path>
                    <polygon id="Shape" fill="#045B7F" points="303.260206 86.284209 277.823546 99.0219373 279.943871 100.875521 306.109619 88.7900807"></polygon>
                    <path d="M307.055804,286.464042 C306.844134,286.371635 306.641509,286.281039 306.431647,286.190444 C306.422602,286.188632 306.400892,286.185008 306.400892,286.185008 L306.408128,286.179572 C254.633851,263.617667 239.690265,243.047051 239.690265,243.047051 L232.278174,247.486231 L229.464945,306.6759 C229.464945,306.6759 240.377742,345.369241 245.036306,357.3206 C245.07068,357.413008 245.725592,359.098084 247.232615,358.480223 C247.458759,358.342517 247.708421,358.192129 247.983412,358.023621 C247.987031,358.021809 247.98884,358.021809 247.990649,358.018186 L247.990649,358.018186 C249.264291,357.242688 251.046305,356.14467 253.106927,354.845531 C253.201003,354.77849 265.438099,345.954488 278.216131,333.3599 C279.00854,332.330735 278.626809,331.46283 278.512832,331.252649 C273.485202,322.582659 256.974892,294.200898 251.889369,286.561885 C251.889369,286.561885 272.113866,308.005842 289.329745,319.438995 C289.655392,319.627433 290.344678,319.893784 290.956171,319.410004 C298.317606,310.229055 305.537927,297.357246 307.562367,287.703389 C307.602168,287.049289 307.345269,286.674224 307.055804,286.464042 Z" id="Shape" fill="#00CCB9"></path>
                    <path d="M197.354327,100.496832 C197.354327,100.496832 132.664522,132.730714 111.955172,138.253416 L158.482913,152.018497 L197.354327,100.496832 Z" id="Shape" fill="#018BD1"></path>
                    <path d="M189.321697,202.739298 L122.383118,135.696811 C122.247431,135.562729 122.055661,135.519243 121.869319,135.575413 C121.838563,135.586284 121.617847,135.646077 121.306673,135.733049 L120.888759,135.301814 L119.425156,135.82908 L113.098556,137.947203 C93.4330865,143.225297 44.1518185,156.334467 1.03794565,167.231295 C0.963770468,167.249414 0.753908974,167.340009 0.753908974,167.340009 C0.753908974,167.340009 -1.05524183,167.992297 1.28399016,168.664516 C10.9448555,170.889541 79.9151116,186.479216 188.88931,203.590896 C188.916448,203.59452 188.941776,203.596331 188.967104,203.596331 C189.153446,203.596331 189.327125,203.493053 189.413964,203.320921 C189.511658,203.128859 189.473666,202.89331 189.321697,202.739298 Z" id="Shape" fill="#00A5E9"></path>
                    <polygon id="Shape" fill="#018BD1" points="221.938877 89.1307199 131.181018 131.096371 119.853925 135.675068 166.899082 181.449354 189.321697 203.449567"></polygon>
                </g>
            </g>
        </g>
    </g>
</svg>