<?xml version="1.0" encoding="UTF-8" standalone="no"?>
<svg width="642px" height="172px" viewBox="0 0 642 172" version="1.1" xmlns="http://www.w3.org/2000/svg" xmlns:xlink="http://www.w3.org/1999/xlink">
    <!-- Generator: Sketch 41.2 (35397) - http://www.bohemiancoding.com/sketch -->
    <title>logo-horizontal</title>
    <desc>Created with Sketch.</desc>
    <defs></defs>
    <g id="Page-1" stroke="none" stroke-width="1" fill="none" fill-rule="evenodd">
        <g id="logo-horizontal">
            <g id="dart-bird" transform="translate(13.000000, 10.000000)">
                <g id="Layer_2">
                    <path d="M155.472856,31.7783808 L128.350131,17.0591436 C127.913059,16.8225341 127.511652,17.0522963 127.414525,17.1154429 L105.972972,31.77762 C105.865222,31.8514178 105.797688,31.9708637 105.7901,32.1009609 C105.782512,32.231058 105.83487,32.358112 105.932756,32.4440826 L116.987785,42.1557208 C117.065942,42.224193 117.165346,42.2607115 117.265508,42.2607115 C117.323936,42.2607115 117.383882,42.2485386 117.439274,42.2226714 L131.445297,35.8585622 L155.343859,32.5658109 C155.52142,32.5353789 155.659522,32.3961521 155.689115,32.2181244 C155.71795,32.0408575 155.630688,31.8643515 155.472856,31.7783808 Z" id="Shape" fill="#00A5E9"></path>
                    <path d="M115.42313,53.819577 L138.638768,56.3530479 C138.638768,56.3530479 146.00904,44.318681 155.589712,37.0347622 L154.689011,31.6140476 L131.445297,35.8585622 L117.439274,42.2226714 L115.42313,53.819577 Z" id="Shape" fill="#00CCB9"></path>
                    <polygon id="Shape" fill="#018BD1" points="83.4683345 41.574468 106.032159 31.7372975 117.439274 42.2234322 115.42313 53.819577 92.9389794 37.4455953"></polygon>
                    <path d="M92.9283561,37.3124549 L3.01755477,0.715593909 C1.14027126,-0.0482513493 0.80412066,0.144992371 0.80412066,0.144992371 C0.66829457,0.439422765 1.34666622,1.40564137 1.52119136,1.64757642 C16.2670484,21.6353679 50.5286106,57.0605938 50.8791785,57.4219747 C50.9603706,57.505663 51.0696385,57.5497895 51.1811829,57.5497895 C51.2411285,57.5497895 51.3018329,57.5368558 51.3587432,57.5102278 L92.9473262,38.0861906 C93.0990872,38.015436 93.1946967,37.8609932 93.1901438,37.692856 C93.1871086,37.5247187 93.0839111,37.3756015 92.9283561,37.3124549 Z" id="Shape" fill="#00A5E9"></path>
                    <polygon id="Shape" fill="#00A5E9" points="79.4064515 85.4263374 85.7849661 87.5999489 115.42313 53.819577 93.0861876 37.4250536"></polygon>
                    <path d="M133.859055,77.502584 C134.172442,77.1625055 134.46534,76.9707834 134.641383,75.9353318 L134.642142,75.9353318 C135.515526,70.511574 138.638009,56.352287 138.638009,56.352287 L115.422371,53.8188162 L85.7842073,87.5984273 L97.6815105,104.277491 L133.859055,77.502584 Z" id="Shape" fill="#4EDECB"></path>
                    <path d="M79.4064515,85.4263374 C79.4064515,85.4263374 92.734102,122.752047 96.418859,129.191475 L97.6822693,104.279012 L85.7849661,87.5999489 L79.4064515,85.4263374 Z" id="Shape" fill="#018BD1"></path>
                    <path d="M97.0524611,151.53471 L97.0243854,150.778473 L97.0243854,150.778473 L97.0243854,150.778473 L96.1995644,128.792815 L79.4064515,85.4270982 C79.4064515,85.4270982 79.3943106,85.5252417 79.3707876,85.7139206 C78.9883499,88.8628803 74.513677,118.319614 78.4458044,136.64201 C78.5262377,136.8984 78.750844,137.393682 79.112794,136.479959 C80.2381017,133.009941 83.3393377,123.692398 84.5921247,122.436314 C84.5921247,122.436314 85.1817161,135.335713 86.4162918,140.827182 C86.4504381,140.960322 86.7281607,141.977515 87.5294587,142.933082 C89.372596,145.138647 93.9747482,149.359577 96.4370703,151.794904 C96.6161483,151.95239 96.9902391,152.191282 97.0524611,151.53471 Z" id="Shape" fill="#00CCB9"></path>
                    <ellipse id="Oval" fill="#045B7F" transform="translate(131.536426, 35.521477) rotate(5.341743) translate(-131.536426, -35.521477) " cx="131.536426" cy="35.5214769" rx="5.38319422" ry="5.56018073"></ellipse>
                    <path d="M135.970809,34.6078036 C135.970809,34.6078036 157.168026,30.8075974 189.736695,27.7111331 C189.736695,27.7111331 161.009856,34.4442312 154.412047,37.9629407 L134.988157,36.2967842 L135.970809,34.6078036 Z" id="Shape" fill="#045B7F"></path>
                    <polygon id="Shape" fill="#045B7F" points="127.19523 36.2298336 116.526432 41.578272 117.415751 42.3565725 128.390348 37.2820229"></polygon>
                    <path d="M128.787203,120.283244 C128.698423,120.244443 128.613436,120.206403 128.525415,120.168363 C128.521621,120.167602 128.512515,120.166081 128.512515,120.166081 L128.515551,120.163798 C106.80007,110.690291 100.532341,102.052905 100.532341,102.052905 L97.4235168,103.91687 L96.243575,128.769991 C96.243575,128.769991 100.820687,145.016919 102.774609,150.035169 C102.789027,150.07397 103.063714,150.781516 103.695799,150.522082 C103.790649,150.464261 103.895364,150.401115 104.010703,150.33036 C104.01222,150.3296 104.012979,150.3296 104.013738,150.328078 L104.013738,150.328078 C104.547937,150.002455 105.29536,149.541409 106.159638,148.995914 C106.199096,148.967764 111.331653,145.262658 116.691093,139.974323 C117.023449,139.542187 116.863341,139.177763 116.815537,139.08951 C114.706818,135.449072 107.781963,123.531869 105.648963,120.324327 C105.648963,120.324327 114.131643,129.32842 121.352432,134.129081 C121.489017,134.208204 121.778121,134.320042 122.034597,134.116908 C125.122175,130.261924 128.150565,124.857186 128.999668,120.803633 C129.016362,120.528983 128.908612,120.371497 128.787203,120.283244 Z" id="Shape" fill="#00CCB9"></path>
                    <path d="M82.7755456,42.1975649 C82.7755456,42.1975649 55.6429561,55.7322334 46.9569156,58.051158 L66.4718619,63.8309712 L82.7755456,42.1975649 Z" id="Shape" fill="#018BD1"></path>
                    <path d="M79.4064515,85.128103 L51.3306675,56.9776663 C51.2737571,56.921367 51.1933238,56.9031077 51.1151668,56.9266926 C51.1022672,56.9312574 51.0096929,56.9563639 50.8791785,56.9928824 L50.7038945,56.8118115 L50.0900213,57.0332049 L47.4364803,57.9225825 C39.1882703,60.1387989 18.5184228,65.6432017 0.435341443,70.2186652 C0.404230439,70.2262732 0.316209062,70.2643133 0.316209062,70.2643133 C0.316209062,70.2643133 -0.442595912,70.5382021 0.538538919,70.8204596 C4.59055748,71.7547246 33.5184795,78.3006654 79.2250971,85.48568 C79.2364792,85.4872016 79.2471024,85.4879624 79.2577257,85.4879624 C79.3358826,85.4879624 79.4087279,85.4445967 79.4451505,85.3723205 C79.486126,85.2916754 79.4701911,85.1927712 79.4064515,85.128103 Z" id="Shape" fill="#00A5E9"></path>
                    <polygon id="Shape" fill="#018BD1" points="93.0869464 37.4250536 55.020736 55.0459899 50.2698581 56.9685367 70.0018226 76.1886789 79.4064515 85.4263374"></polygon>
                </g>
            </g>
            <g id="leeds.dart" transform="translate(173.000000, 71.000000)">
                <path d="M13.805,67 L0.305,67 L0.305,0.22 L13.805,0.22 L13.805,67 Z M68.525,59.98 C63.0649727,65.1400258 56.6600368,67.72 49.31,67.72 C41.9599633,67.72 35.885024,65.4550226 31.085,60.925 C26.284976,56.3949773 23.885,50.3200381 23.885,42.7 C23.885,35.0799619 26.3299756,29.0200225 31.22,24.52 C36.1100245,20.0199775 41.8849667,17.77 48.545,17.77 C55.2050333,17.77 60.8599768,19.7799799 65.51,23.8 C70.1600233,27.8200201 72.485,33.3399649 72.485,40.36 L72.485,47.56 L37.205,47.56 C37.6250021,50.2000132 39.0049883,52.3599916 41.345,54.04 C43.6850117,55.7200084 46.3249853,56.56 49.265,56.56 C54.0050237,56.56 57.9049847,54.9700159 60.965,51.79 L68.525,59.98 Z M55.565,31.27 C53.7049907,29.7099922 51.4400134,28.93 48.77,28.93 C46.0999867,28.93 43.6550111,29.7399919 41.435,31.36 C39.2149889,32.9800081 37.9250018,35.1699862 37.565,37.93 L58.805,37.93 C58.5049985,35.0499856 57.4250093,32.8300078 55.565,31.27 Z M124.145,59.98 C118.684973,65.1400258 112.280037,67.72 104.93,67.72 C97.5799633,67.72 91.505024,65.4550226 86.705,60.925 C81.904976,56.3949773 79.505,50.3200381 79.505,42.7 C79.505,35.0799619 81.9499756,29.0200225 86.84,24.52 C91.7300245,20.0199775 97.5049667,17.77 104.165,17.77 C110.825033,17.77 116.479977,19.7799799 121.13,23.8 C125.780023,27.8200201 128.105,33.3399649 128.105,40.36 L128.105,47.56 L92.825,47.56 C93.2450021,50.2000132 94.6249883,52.3599916 96.965,54.04 C99.3050117,55.7200084 101.944985,56.56 104.885,56.56 C109.625024,56.56 113.524985,54.9700159 116.585,51.79 L124.145,59.98 Z M111.185,31.27 C109.324991,29.7099922 107.060013,28.93 104.39,28.93 C101.719987,28.93 99.2750111,29.7399919 97.055,31.36 C94.8349889,32.9800081 93.5450018,35.1699862 93.185,37.93 L114.425,37.93 C114.124999,35.0499856 113.045009,32.8300078 111.185,31.27 Z M141.875,60.43 C137.374978,55.5699757 135.125,49.540036 135.125,42.34 C135.125,35.139964 137.314978,29.245023 141.695,24.655 C146.075022,20.0649771 151.204971,17.77 157.085,17.77 C162.965029,17.77 167.764981,19.8399793 171.485,23.98 L171.485,0.22 L184.985,0.22 L184.985,67 L171.485,67 L171.485,60.61 C167.704981,65.3500237 162.950029,67.72 157.22,67.72 C151.489971,67.72 146.375023,65.2900243 141.875,60.43 Z M152.225,52.465 C154.565012,54.9550125 157.294984,56.2 160.415,56.2 C163.535016,56.2 166.189989,54.9550125 168.38,52.465 C170.570011,49.9749876 171.665,46.7650196 171.665,42.835 C171.665,38.9049804 170.570011,35.635013 168.38,33.025 C166.189989,30.414987 163.505016,29.11 160.325,29.11 C157.144984,29.11 154.415011,30.4299868 152.135,33.07 C149.854989,35.7100132 148.715,38.9799805 148.715,42.88 C148.715,46.7800195 149.884988,49.9749876 152.225,52.465 Z M228.95,63.4 C225.439982,66.2800144 220.985027,67.72 215.585,67.72 C211.984982,67.72 208.23502,67.0750064 204.335,65.785 C200.434981,64.4949936 196.925016,62.5900126 193.805,60.07 L199.745,51.61 C204.785025,55.5100195 210.154972,57.46 215.855,57.46 C217.595009,57.46 218.974995,57.1150035 219.995,56.425 C221.015005,55.7349966 221.525,54.8200057 221.525,53.68 C221.525,52.5399943 220.820007,51.4900048 219.41,50.53 C217.999993,49.5699952 215.960013,48.6700042 213.29,47.83 C210.619987,46.9899958 208.580007,46.270003 207.17,45.67 C205.759993,45.069997 204.155009,44.2000057 202.355,43.06 C198.694982,40.7799886 196.865,37.4050224 196.865,32.935 C196.865,28.4649776 198.664982,24.8200141 202.265,22 C205.865018,19.1799859 210.514972,17.77 216.215,17.77 C221.915029,17.77 227.614972,19.6899808 233.315,23.53 L228.275,32.53 C224.074979,29.6499856 219.890021,28.21 215.72,28.21 C211.549979,28.21 209.465,29.3499886 209.465,31.63 C209.465,32.8900063 210.124993,33.8799964 211.445,34.6 C212.765007,35.3200036 214.954985,36.1599952 218.015,37.12 C221.075015,38.0800048 223.249994,38.8149975 224.54,39.325 C225.830006,39.8350026 227.374991,40.6299946 229.175,41.71 C232.535017,43.7500102 234.215,47.1549761 234.215,51.925 C234.215,56.6950238 232.460018,60.5199856 228.95,63.4 Z" id="leeds" fill="#00A5E9"></path>
                <path d="M243.215,59.8 C243.215,57.5799889 243.979992,55.7050076 245.51,54.175 C247.040008,52.6449923 248.914989,51.88 251.135,51.88 C253.355011,51.88 255.229992,52.6449923 256.76,54.175 C258.290008,55.7050076 259.055,57.5799889 259.055,59.8 C259.055,62.0200111 258.290008,63.8949923 256.76,65.425 C255.229992,66.9550076 253.355011,67.72 251.135,67.72 C248.914989,67.72 247.040008,66.9550076 245.51,65.425 C243.979992,63.8949923 243.215,62.0200111 243.215,59.8 Z M274.535,60.43 C270.034978,55.5699757 267.785,49.540036 267.785,42.34 C267.785,35.139964 269.974978,29.245023 274.355,24.655 C278.735022,20.0649771 283.864971,17.77 289.745,17.77 C295.625029,17.77 300.424981,19.8399793 304.145,23.98 L304.145,0.22 L317.645,0.22 L317.645,67 L304.145,67 L304.145,60.61 C300.364981,65.3500237 295.610029,67.72 289.88,67.72 C284.149971,67.72 279.035023,65.2900243 274.535,60.43 Z M284.885,52.465 C287.225012,54.9550125 289.954984,56.2 293.075,56.2 C296.195016,56.2 298.849989,54.9550125 301.04,52.465 C303.230011,49.9749876 304.325,46.7650196 304.325,42.835 C304.325,38.9049804 303.230011,35.635013 301.04,33.025 C298.849989,30.414987 296.165016,29.11 292.985,29.11 C289.804984,29.11 287.075011,30.4299868 284.795,33.07 C282.514989,35.7100132 281.375,38.9799805 281.375,42.88 C281.375,46.7800195 282.544988,49.9749876 284.885,52.465 Z M371.555,67 L358.865,67 L358.865,61.15 C355.384983,65.5300219 351.080026,67.72 345.95,67.72 C340.819974,67.72 336.515017,66.2350148 333.035,63.265 C329.554983,60.2949852 327.815,56.3350248 327.815,51.385 C327.815,46.4349752 329.614982,42.7300123 333.215,40.27 C336.815018,37.8099877 341.734969,36.58 347.975,36.58 L358.055,36.58 L358.055,36.31 C358.055,31.1499742 355.325027,28.57 349.865,28.57 C347.524988,28.57 345.050013,29.0349954 342.44,29.965 C339.829987,30.8950046 337.625009,32.0499931 335.825,33.43 L329.795,24.7 C336.155032,20.0799769 343.414959,17.77 351.575,17.77 C357.455029,17.77 362.254981,19.2399853 365.975,22.18 C369.695019,25.1200147 371.555,29.7699682 371.555,36.13 L371.555,67 Z M357.965,48.55 L357.965,46.21 L349.505,46.21 C344.104973,46.21 341.405,47.8899832 341.405,51.25 C341.405,52.9900087 342.049994,54.3249953 343.34,55.255 C344.630006,56.1850046 346.474988,56.65 348.875,56.65 C351.275012,56.65 353.389991,55.9150073 355.22,54.445 C357.050009,52.9749926 357.965,51.0100123 357.965,48.55 Z M409.355,30.46 C405.33498,30.46 402.33501,31.8849857 400.355,34.735 C398.37499,37.5850142 397.385,41.3499766 397.385,46.03 L397.385,67 L383.885,67 L383.885,18.58 L397.385,18.58 L397.385,24.97 C399.125009,22.9899901 401.299987,21.3100069 403.91,19.93 C406.520013,18.5499931 409.174986,17.8300003 411.875,17.77 L411.965,30.46 L409.355,30.46 Z M436.985,28.3 L436.985,49.99 C436.985,51.8500093 437.464995,53.3049947 438.425,54.355 C439.385005,55.4050052 440.524993,55.93 441.845,55.93 C444.365013,55.93 446.494991,54.7900114 448.235,52.51 L453.275,61.96 C449.074979,65.8000192 444.650023,67.72 440,67.72 C435.349977,67.72 431.420016,66.1900153 428.21,63.13 C424.999984,60.0699847 423.395,55.9000264 423.395,50.62 L423.395,28.3 L417.725,28.3 L417.725,18.58 L423.395,18.58 L423.395,4.09 L436.985,4.09 L436.985,18.58 L448.685,18.58 L448.685,28.3 L436.985,28.3 Z" id=".dart" fill="#4EDECB"></path>
            </g>
        </g>
    </g>
</svg>