<?xml version="1.0" encoding="UTF-8" standalone="no"?>
<svg width="642px" height="172px" viewBox="0 0 642 172" version="1.1" xmlns="http://www.w3.org/2000/svg" xmlns:xlink="http://www.w3.org/1999/xlink">
    <!-- Generator: Sketch 41.2 (35397) - http://www.bohemiancoding.com/sketch -->
    <title>logo-horizontal</title>
    <desc>Created with Sketch.</desc>
    <defs></defs>
    <g id="Page-1" stroke="none" stroke-width="1" fill="none" fill-rule="evenodd">
        <g id="logo-horizontal">
            <text id="leeds.dart" font-family="Montserrat-Bold, Montserrat" font-size="90" font-weight="bold">
                <tspan x="167" y="138" fill="#00A5E9">leeds</tspan>
                <tspan x="411.26" y="138" fill="#4EDECB">.dart</tspan>
            </text>
            <g id="dart-bird" transform="translate(13.000000, 10.000000)">
                <g id="Layer_2">
                    <path d="M155.472856,31.7783808 L128.350131,17.0591436 C127.913059,16.8225341 127.511652,17.0522963 127.414525,17.1154429 L105.972972,31.77762 C105.865222,31.8514178 105.797688,31.9708637 105.7901,32.1009609 C105.782512,32.231058 105.83487,32.358112 105.932756,32.4440826 L116.987785,42.1557208 C117.065942,42.224193 117.165346,42.2607115 117.265508,42.2607115 C117.323936,42.2607115 117.383882,42.2485386 117.439274,42.2226714 L131.445297,35.8585622 L155.343859,32.5658109 C155.52142,32.5353789 155.659522,32.3961521 155.689115,32.2181244 C155.71795,32.0408575 155.630688,31.8643515 155.472856,31.7783808 Z" id="Shape" fill="#00A5E9"></path>
                    <path d="M115.42313,53.819577 L138.638768,56.3530479 C138.638768,56.3530479 146.00904,44.318681 155.589712,37.0347622 L154.689011,31.6140476 L131.445297,35.8585622 L117.439274,42.2226714 L115.42313,53.819577 Z" id="Shape" fill="#00CCB9"></path>
                    <polygon id="Shape" fill="#018BD1" points="83.4683345 41.574468 106.032159 31.7372975 117.439274 42.2234322 115.42313 53.819577 92.9389794 37.4455953"></polygon>
                    <path d="M92.9283561,37.3124549 L3.01755477,0.715593909 C1.14027126,-0.0482513493 0.80412066,0.144992371 0.80412066,0.144992371 C0.66829457,0.439422765 1.34666622,1.40564137 1.52119136,1.64757642 C16.2670484,21.6353679 50.5286106,57.0605938 50.8791785,57.4219747 C50.9603706,57.505663 51.0696385,57.5497895 51.1811829,57.5497895 C51.2411285,57.5497895 51.3018329,57.5368558 51.3587432,57.5102278 L92.9473262,38.0861906 C93.0990872,38.015436 93.1946967,37.8609932 93.1901438,37.692856 C93.1871086,37.5247187 93.0839111,37.3756015 92.9283561,37.3124549 Z" id="Shape" fill="#00A5E9"></path>
                    <polygon id="Shape" fill="#00A5E9" points="79.4064515 85.4263374 85.7849661 87.5999489 115.42313 53.819577 93.0861876 37.4250536"></polygon>
                    <path d="M133.859055,77.502584 C134.172442,77.1625055 134.46534,76.9707834 134.641383,75.9353318 L134.642142,75.9353318 C135.515526,70.511574 138.638009,56.352287 138.638009,56.352287 L115.422371,53.8188162 L85.7842073,87.5984273 L97.6815105,104.277491 L133.859055,77.502584 Z" id="Shape" fill="#4EDECB"></path>
                    <path d="M79.4064515,85.4263374 C79.4064515,85.4263374 92.734102,122.752047 96.418859,129.191475 L97.6822693,104.279012 L85.7849661,87.5999489 L79.4064515,85.4263374 Z" id="Shape" fill="#018BD1"></path>
                    <path d="M97.0524611,151.53471 L97.0243854,150.778473 L97.0243854,150.778473 L97.0243854,150.778473 L96.1995644,128.792815 L79.4064515,85.4270982 C79.4064515,85.4270982 79.3943106,85.5252417 79.3707876,85.7139206 C78.9883499,88.8628803 74.513677,118.319614 78.4458044,136.64201 C78.5262377,136.8984 78.750844,137.393682 79.112794,136.479959 C80.2381017,133.009941 83.3393377,123.692398 84.5921247,122.436314 C84.5921247,122.436314 85.1817161,135.335713 86.4162918,140.827182 C86.4504381,140.960322 86.7281607,141.977515 87.5294587,142.933082 C89.372596,145.138647 93.9747482,149.359577 96.4370703,151.794904 C96.6161483,151.95239 96.9902391,152.191282 97.0524611,151.53471 Z" id="Shape" fill="#00CCB9"></path>
                    <ellipse id="Oval" fill="#045B7F" transform="translate(131.536426, 35.521477) rotate(5.341743) translate(-131.536426, -35.521477) " cx="131.536426" cy="35.5214769" rx="5.38319422" ry="5.56018073"></ellipse>
                    <path d="M135.970809,34.6078036 C135.970809,34.6078036 157.168026,30.8075974 189.736695,27.7111331 C189.736695,27.7111331 161.009856,34.4442312 154.412047,37.9629407 L134.988157,36.2967842 L135.970809,34.6078036 Z" id="Shape" fill="#045B7F"></path>
                    <polygon id="Shape" fill="#045B7F" points="127.19523 36.2298336 116.526432 41.578272 117.415751 42.3565725 128.390348 37.2820229"></polygon>
                    <path d="M128.787203,120.283244 C128.698423,120.244443 128.613436,120.206403 128.525415,120.168363 C128.521621,120.167602 128.512515,120.166081 128.512515,120.166081 L128.515551,120.163798 C106.80007,110.690291 100.532341,102.052905 100.532341,102.052905 L97.4235168,103.91687 L96.243575,128.769991 C96.243575,128.769991 100.820687,145.016919 102.774609,150.035169 C102.789027,150.07397 103.063714,150.781516 103.695799,150.522082 C103.790649,150.464261 103.895364,150.401115 104.010703,150.33036 C104.01222,150.3296 104.012979,150.3296 104.013738,150.328078 L104.013738,150.328078 C104.547937,150.002455 105.29536,149.541409 106.159638,148.995914 C106.199096,148.967764 111.331653,145.262658 116.691093,139.974323 C117.023449,139.542187 116.863341,139.177763 116.815537,139.08951 C114.706818,135.449072 107.781963,123.531869 105.648963,120.324327 C105.648963,120.324327 114.131643,129.32842 121.352432,134.129081 C121.489017,134.208204 121.778121,134.320042 122.034597,134.116908 C125.122175,130.261924 128.150565,124.857186 128.999668,120.803633 C129.016362,120.528983 128.908612,120.371497 128.787203,120.283244 Z" id="Shape" fill="#00CCB9"></path>
                    <path d="M82.7755456,42.1975649 C82.7755456,42.1975649 55.6429561,55.7322334 46.9569156,58.051158 L66.4718619,63.8309712 L82.7755456,42.1975649 Z" id="Shape" fill="#018BD1"></path>
                    <path d="M79.4064515,85.128103 L51.3306675,56.9776663 C51.2737571,56.921367 51.1933238,56.9031077 51.1151668,56.9266926 C51.1022672,56.9312574 51.0096929,56.9563639 50.8791785,56.9928824 L50.7038945,56.8118115 L50.0900213,57.0332049 L47.4364803,57.9225825 C39.1882703,60.1387989 18.5184228,65.6432017 0.435341443,70.2186652 C0.404230439,70.2262732 0.316209062,70.2643133 0.316209062,70.2643133 C0.316209062,70.2643133 -0.442595912,70.5382021 0.538538919,70.8204596 C4.59055748,71.7547246 33.5184795,78.3006654 79.2250971,85.48568 C79.2364792,85.4872016 79.2471024,85.4879624 79.2577257,85.4879624 C79.3358826,85.4879624 79.4087279,85.4445967 79.4451505,85.3723205 C79.486126,85.2916754 79.4701911,85.1927712 79.4064515,85.128103 Z" id="Shape" fill="#00A5E9"></path>
                    <polygon id="Shape" fill="#018BD1" points="93.0869464 37.4250536 55.020736 55.0459899 50.2698581 56.9685367 70.0018226 76.1886789 79.4064515 85.4263374"></polygon>
                </g>
            </g>
        </g>
    </g>
</svg>